<svg width="24" height="18" viewBox="0 0 24 18" fill="none" xmlns="http://www.w3.org/2000/svg">
<path d="M11.7078 10.0953C11.0478 10.0953 10.5078 9.55531 10.5078 8.89531C10.5078 8.23531 11.0478 7.69531 11.7078 7.69531C12.3678 7.69531 12.9078 8.23531 12.9078 8.89531C12.9078 9.55531 12.3678 10.0953 11.7078 10.0953Z" fill="url(#paint0_linear_108_565)"/>
<path d="M12 14.25C13.3924 14.25 14.7277 13.6969 15.7123 12.7123C16.6969 11.7277 17.25 10.3924 17.25 9C17.25 7.60761 16.6969 6.27226 15.7123 5.28769C14.7277 4.30312 13.3924 3.75 12 3.75C10.6076 3.75 9.27226 4.30312 8.28769 5.28769C7.30312 6.27226 6.75 7.60761 6.75 9C6.75 10.3924 7.30312 11.7277 8.28769 12.7123C9.27226 13.6969 10.6076 14.25 12 14.25ZM12 5.625C13.8375 5.6475 15.33 7.185 15.33 9.0375V9.645C15.33 10.3125 14.7825 10.86 14.115 10.86C13.6575 10.86 13.26 10.605 13.05 10.23C12.705 10.575 12.225 10.7925 11.7 10.7925C10.65 10.7925 9.795 9.9375 9.795 8.8875C9.795 7.8375 10.65 6.9825 11.7 6.9825C12.1575 6.9825 12.57 7.1475 12.9 7.41V7.3425C12.9 7.1475 13.0725 6.99 13.2675 6.99C13.4625 6.99 13.62 7.1475 13.62 7.3425V9.6525C13.62 9.78577 13.6729 9.91358 13.7672 10.0078C13.8614 10.1021 13.9892 10.155 14.1225 10.155C14.2558 10.155 14.3836 10.1021 14.4778 10.0078C14.5721 9.91358 14.625 9.78577 14.625 9.6525V9.045C14.625 7.5675 13.44 6.3525 11.9925 6.33C11.2725 6.33 10.59 6.6 10.08 7.1025C9.57 7.605 9.285 8.28 9.285 9C9.285 10.47 10.485 11.67 11.955 11.67C12.0485 11.67 12.1381 11.7071 12.2043 11.7732C12.2704 11.8394 12.3075 11.929 12.3075 12.0225C12.3075 12.116 12.2704 12.2056 12.2043 12.2718C12.1381 12.3379 12.0485 12.375 11.955 12.375C10.095 12.375 8.58 10.86 8.58 9C8.58 8.0925 8.9325 7.2375 9.585 6.6C10.23 5.955 11.0925 5.61 12 5.625Z" fill="url(#paint1_linear_108_565)"/>
<path d="M0.750002 2.2575C0.750002 1.4235 1.4235 0.75 2.2575 0.75H21.75C22.5818 0.75 23.25 1.428 23.25 2.2575V15.75C23.25 16.5817 22.572 17.25 21.7425 17.25H2.2575C2.05945 17.2503 1.86329 17.2115 1.68026 17.1359C1.49722 17.0602 1.33092 16.9492 1.19088 16.8091C1.05083 16.6691 0.939804 16.5028 0.86415 16.3197C0.788496 16.1367 0.749705 15.9406 0.750002 15.7425V2.2575ZM2.25 2.25375V2.6265L7.0125 5.661C6.73101 6.07989 6.5037 6.53274 6.336 7.00875L2.25 4.40475V14.01L6.465 11.3243C6.65955 11.7872 6.91153 12.2239 7.215 12.624L2.31 15.75H21.7013L16.7835 12.6202C17.0871 12.2197 17.3391 11.7825 17.5335 11.319L21.75 14.0033V4.41L17.661 7.0125C17.4938 6.53632 17.267 6.08322 16.986 5.664L21.75 2.63325V2.25225L21.747 2.25H2.25375L2.2515 2.2515L2.25075 2.253L2.25 2.25375Z" fill="url(#paint2_linear_108_565)"/>
<defs>
<linearGradient id="paint0_linear_108_565" x1="11.7078" y1="7.69531" x2="11.7078" y2="10.0953" gradientUnits="userSpaceOnUse">
<stop stop-color="#FF961A"/>
<stop offset="1" stop-color="#EC1908"/>
</linearGradient>
<linearGradient id="paint1_linear_108_565" x1="12" y1="3.75" x2="12" y2="14.25" gradientUnits="userSpaceOnUse">
<stop stop-color="#FF961A"/>
<stop offset="1" stop-color="#EC1908"/>
</linearGradient>
<linearGradient id="paint2_linear_108_565" x1="12" y1="0.75" x2="12" y2="17.25" gradientUnits="userSpaceOnUse">
<stop stop-color="#FF961A"/>
<stop offset="1" stop-color="#EC1908"/>
</linearGradient>
</defs>
</svg>
