<svg width="21" height="21" viewBox="0 0 21 21" fill="none" xmlns="http://www.w3.org/2000/svg">
<path d="M10.2725 2.32617C5.70408 2.32617 2.00391 6.02635 2.00391 10.5947C2.00291 12.3304 2.54847 14.0224 3.5632 15.4305C4.57793 16.8387 6.01029 17.8916 7.65711 18.4399C8.07054 18.5119 8.22599 18.2638 8.22599 18.0463C8.22599 17.8504 8.21524 17.1996 8.21524 16.5067C6.13818 16.8896 5.60073 16.0007 5.43536 15.5352C5.34192 15.297 4.93924 14.5636 4.58783 14.3668C4.29843 14.2122 3.885 13.8294 4.57708 13.8195C5.22864 13.8087 5.69333 14.4189 5.84878 14.667C6.59295 15.9172 7.78114 15.5658 8.25658 15.3491C8.32935 14.8117 8.54598 14.4503 8.78412 14.2436C6.94437 14.0369 5.02193 13.3233 5.02193 10.1606C5.02193 9.261 5.34192 8.51766 5.86945 7.93804C5.78677 7.73132 5.49737 6.8838 5.95214 5.74687C5.95214 5.74687 6.64422 5.53023 8.22599 6.59522C8.8991 6.4084 9.59457 6.31438 10.2931 6.31575C10.996 6.31575 11.6988 6.40835 12.3603 6.5944C13.942 5.51949 14.6341 5.7477 14.6341 5.7477C15.0889 6.88462 14.7995 7.73215 14.7168 7.93886C15.2435 8.51766 15.5643 9.25108 15.5643 10.1606C15.5643 13.3341 13.632 14.0369 11.7914 14.2436C12.0915 14.5016 12.3503 14.9977 12.3503 15.7733C12.3503 16.8788 12.3396 17.7677 12.3396 18.0472C12.3396 18.2638 12.495 18.5218 12.9085 18.4391C14.5496 17.8848 15.9757 16.8298 16.9859 15.4227C17.9962 14.0155 18.5398 12.327 18.5402 10.5947C18.5402 6.02635 14.84 2.32617 10.2716 2.32617H10.2725Z" fill="#0B0909"/>
</svg>
