<svg width="21" height="21" viewBox="0 0 21 21" fill="none" xmlns="http://www.w3.org/2000/svg">
<rect x="0.929688" y="0.671875" width="19.8445" height="19.8453" rx="8.26855" fill="#F2F7FC"/>
<path d="M5.88945 4.80688C5.88923 5.24547 5.71479 5.66601 5.40451 5.97599C5.09422 6.28596 4.67351 6.45998 4.23491 6.45976C3.79632 6.45954 3.37578 6.2851 3.06581 5.97482C2.75583 5.66453 2.58181 5.24382 2.58203 4.80523C2.58225 4.36664 2.75669 3.9461 3.06698 3.63612C3.37726 3.32614 3.79798 3.15212 4.23657 3.15234C4.67516 3.15256 5.0957 3.327 5.40568 3.63729C5.71565 3.94757 5.88967 4.36829 5.88945 4.80688ZM5.93906 7.68434H2.63164V18.0366H5.93906V7.68434ZM11.1648 7.68434H7.8739V18.0366H11.1317V12.6041C11.1317 9.57783 15.0758 9.2967 15.0758 12.6041V18.0366H18.3419V11.4796C18.3419 6.3779 12.5043 6.56808 11.1317 9.07345L11.1648 7.68434Z" fill="#0077B5"/>
</svg>
