<svg width="21" height="21" viewBox="0 0 21 21" fill="none" xmlns="http://www.w3.org/2000/svg">
<path d="M18.9874 5.60531C18.3564 5.88446 17.6873 6.06783 17.0021 6.14938C17.724 5.71705 18.2642 5.03705 18.5219 4.23604C17.8439 4.63954 17.1005 4.92233 16.3266 5.0753C15.8062 4.51848 15.1164 4.14919 14.3644 4.02485C13.6125 3.90051 12.8405 4.02808 12.1686 4.38773C11.4966 4.74738 10.9623 5.31896 10.6487 6.01361C10.3351 6.70825 10.2598 7.48705 10.4344 8.22892C9.05932 8.16012 7.71406 7.80287 6.48599 7.18036C5.25792 6.55785 4.17451 5.684 3.30612 4.61557C2.99877 5.14347 2.83726 5.74358 2.83812 6.35444C2.83812 7.55338 3.44917 8.61258 4.37607 9.23272C3.82705 9.21541 3.29012 9.06714 2.81001 8.80028V8.84245C2.80998 9.64108 3.0862 10.4151 3.59182 11.0333C4.09744 11.6515 4.80133 12.0758 5.5841 12.2342C5.07447 12.3725 4.54003 12.3928 4.02135 12.2937C4.24206 12.9812 4.67226 13.5824 5.25171 14.0131C5.83115 14.4438 6.53082 14.6825 7.2527 14.6958C6.53528 15.2592 5.71383 15.6757 4.83531 15.9215C3.9568 16.1672 3.03846 16.2373 2.13281 16.1279C3.71353 17.1444 5.5536 17.6841 7.43295 17.6824C13.7948 17.6824 17.2725 12.4128 17.2725 7.84278C17.2725 7.69395 17.2692 7.54346 17.2626 7.39545C17.9393 6.90625 18.5234 6.29951 18.9874 5.60531Z" fill="#1DA1F2"/>
</svg>
