<svg width="24" height="24" viewBox="0 0 24 24" fill="none" xmlns="http://www.w3.org/2000/svg">
<rect width="24" height="24" fill="#FF9C1A"/>
<g id="Landing Page" filter="url(#filter0_d_0_1)">
<rect width="1440" height="1024" transform="translate(-618 -592)" fill="#F2F5F9"/>
<g id="About Me Section">
<g id="About Me Card" filter="url(#filter1_d_0_1)">
<rect x="-98" y="-318" width="820" height="700" rx="20" fill="white"/>
</g>
<g id="Web Development">
<rect x="-25" y="-12" width="333" height="169" rx="10" fill="white"/>
<rect id="Web Development Card" x="-25" y="-12" width="333" height="169" rx="20" fill="#FFEBD1"/>
<g id="Web Development Details">
<g id="Web Development heading">
<g id="code icon">
<path id="Vector" d="M12.8881 3L14.8481 3.4L11.1081 21L9.14812 20.6L12.8881 3ZM19.5881 12L15.9981 8.41V5.58L22.4181 12L15.9981 18.41V15.58L19.5881 12ZM1.57812 12L7.99813 5.58V8.41L4.40812 12L7.99813 15.58V18.41L1.57812 12Z" fill="#E80505"/>
</g>
</g>
</g>
</g>
</g>
</g>
<defs>
<filter id="filter0_d_0_1" x="-622" y="-592" width="1448" height="1032" filterUnits="userSpaceOnUse" color-interpolation-filters="sRGB">
<feFlood flood-opacity="0" result="BackgroundImageFix"/>
<feColorMatrix in="SourceAlpha" type="matrix" values="0 0 0 0 0 0 0 0 0 0 0 0 0 0 0 0 0 0 127 0" result="hardAlpha"/>
<feOffset dy="4"/>
<feGaussianBlur stdDeviation="2"/>
<feComposite in2="hardAlpha" operator="out"/>
<feColorMatrix type="matrix" values="0 0 0 0 0 0 0 0 0 0 0 0 0 0 0 0 0 0 0.25 0"/>
<feBlend mode="normal" in2="BackgroundImageFix" result="effect1_dropShadow_0_1"/>
<feBlend mode="normal" in="SourceGraphic" in2="effect1_dropShadow_0_1" result="shape"/>
</filter>
<filter id="filter1_d_0_1" x="-98" y="-318" width="820" height="700" filterUnits="userSpaceOnUse" color-interpolation-filters="sRGB">
<feFlood flood-opacity="0" result="BackgroundImageFix"/>
<feColorMatrix in="SourceAlpha" type="matrix" values="0 0 0 0 0 0 0 0 0 0 0 0 0 0 0 0 0 0 127 0" result="hardAlpha"/>
<feOffset/>
<feComposite in2="hardAlpha" operator="out"/>
<feColorMatrix type="matrix" values="0 0 0 0 0 0 0 0 0 0 0 0 0 0 0 0 0 0 0.25 0"/>
<feBlend mode="normal" in2="BackgroundImageFix" result="effect1_dropShadow_0_1"/>
<feBlend mode="normal" in="SourceGraphic" in2="effect1_dropShadow_0_1" result="shape"/>
</filter>
</defs>
</svg>
